PathFileType	4	(X/Y/Z)	E:\Qualisys_Data\Carbon_Farble_Plate\Data\Amateur_Runner\S2\T1\S2T1V13_c3d.trc
DataRate	CameraRate	NumFrames	NumMarkers	Units	OrigDataRate	OrigDataStartFrame	OrigNumFrames
200.000000	200.000000	5	39	mm	200.000000	269	308
Frame#	Time	LSHO			RSHO			LICST			RICST			LASIS			LHEEL			RASIS			LTROC			RTROC			SACR			LTH1			LSK4			LTH2			LTH3			RHM5			LSK2			LTH4			RTH1			LTOE			RTH2			RTH3			RTH4			LLEP			RLEP			LSK1			LSK3			RSK1			LHM5			RSK2			LFT1			RSK3			RSK4			LLME			RLME			RTOE			RHEEL			RFT1			RFT2			LFT2			
		X1	Y1	Z1	X2	Y2	Z2	X3	Y3	Z3	X4	Y4	Z4	X5	Y5	Z5	X6	Y6	Z6	X7	Y7	Z7	X8	Y8	Z8	X9	Y9	Z9	X10	Y10	Z10	X11	Y11	Z11	X12	Y12	Z12	X13	Y13	Z13	X14	Y14	Z14	X15	Y15	Z15	X16	Y16	Z16	X17	Y17	Z17	X18	Y18	Z18	X19	Y19	Z19	X20	Y20	Z20	X21	Y21	Z21	X22	Y22	Z22	X23	Y23	Z23	X24	Y24	Z24	X25	Y25	Z25	X26	Y26	Z26	X27	Y27	Z27	X28	Y28	Z28	X29	Y29	Z29	X30	Y30	Z30	X31	Y31	Z31	X32	Y32	Z32	X33	Y33	Z33	X34	Y34	Z34	X35	Y35	Z35	X36	Y36	Z36	X37	Y37	Z37	X38	Y38	Z38	X39	Y39	Z39	

270	1.345	2291.47265625	1448.348510742188	-453.3714599609375	2273.53271484375	1443.864868164062	-139.8315582275391	2229.0556640625	984.5587768554688	-423.7768859863281	2238.774658203125	988.8121337890624	-121.8572769165039	2281.774658203125	934.4993896484376	-409.2108154296875	1837.712280273438	173.6007690429688	-288.8692016601562	2298.2939453125	942.981689453125	-150.9033203125	2141.41162109375	871.7240600585938	-414.3171997070312	2170.73681640625	883.1787109375	-103.0891036987305	2140.67529296875	1027.325927734375	-276.8621826171875	2222.323486328125	620.5968627929688	-415.8335876464844	1966.217529296875	322.5025634765625	-381.9049987792969	2139.064697265625	636.2556762695312	-420.1537475585938	2201.79296875	522.1373291015625	-391.5870361328125	2194.67236328125	151.7406921386719	-119.4217376708984	2023.894653320312	401.5576171875	-401.4060668945312	2118.36181640625	540.9329833984375	-393.1798095703125	2413.623779296875	685.6539916992188	-108.4770736694336	2030.975219726562	52.34019470214844	-300.7049560546875	2343.29931640625	651.192626953125	-99.76725769042967	2454.43212890625	594.5504760742188	-129.1090698242188	2380.54443359375	562.3988037109375	-118.8627090454102	2141.447509765625	484.333984375	-393.1287231445312	2413.8251953125	542.447998046875	-119.7324371337891	2088.46240234375	355.9789123535156	-392.8170166015625	2029.430419921875	275.7419738769531	-377.6478881835938	2370.395263671875	433.7856750488281	-122.0341720581055	1978.31494140625	53.21886444091797	-364.9436950683594	2317.390625	494.1147766113281	-113.7925033569336	1837.092041015625	148.0161590576172	-259.2142639160156	2293.660888671875	366.4071655273438	-131.0746459960938	2243.721923828125	428.2978820800781	-123.8173141479492	1898.431884765625	154.24658203125	-345.7637939453125	2130.456298828125	272.6334838867188	-152.5965118408203	2250.560791015625	128.7819061279297	-180.6557159423828	2075.912353515625	299.2828063964844	-210.4309692382812	2071.085205078125	268.60595703125	-240.6858062744141	2058.0263671875	279.9221496582031	-185.1395721435547	1824.6982421875	147.5714111328125	-311.8541564941406
271	1.35	2309.577880859375	1453.5478515625	-451.9315795898438	2289.201171875	1448.152221679688	-139.4588317871094	2247.876953125	988.5263671875	-423.3041076660156	2256.521484375	994.4669799804688	-121.5753326416016	2295.997802734375	938.10791015625	-408.6949157714844	1847.20556640625	182.8733978271484	-291.0929870605469	2315.6376953125	947.9629516601562	-150.5776214599609	2159.048583984375	876.7284545898438	-414.6348876953125	2188.8916015625	888.8887329101562	-101.9336471557617	2158.78564453125	1031.91064453125	-277.3389892578125	2235.3193359375	625.1251831054688	-415.8271789550781	1974.204833984375	328.9705810546875	-384.0845031738281	2152.591552734375	642.2977905273438	-420.8101501464844	2212.487060546875	526.773193359375	-392.614013671875	2230.121337890625	146.1150054931641	-119.6304016113281	2032.023315429688	408.310546875	-403.1557006835938	2129.6171875	547.3893432617188	-394.3032836914062	2432.367431640625	690.8021850585938	-109.1838531494141	2033.315063476562	51.67866134643555	-301.668212890625	2362.215087890625	656.946533203125	-99.70445251464844	2472.88330078125	599.4905395507812	-129.7469024658203	2399.013916015625	568.3785400390625	-118.2372207641602	2150.77294921875	490.1164245605469	-393.8910217285156	2431.573974609375	547.004150390625	-120.31103515625	2096.16259765625	363.0379028320312	-394.8506774902344	2037.672607421875	282.3076477050781	-380.1390686035156	2392.1220703125	435.7615661621094	-121.7462997436523	1980.961791992188	53.87433242797852	-365.8240051269531	2336.039306640625	493.4990234375	-113.3433609008789	1845.569702148438	157.5137634277344	-260.9264526367188	2318.6357421875	365.1138000488281	-130.7754974365234	2265.51025390625	424.2546997070312	-123.7839431762695	1906.30126953125	159.4084320068359	-347.9446716308594	2160.41455078125	263.1022644042969	-152.7731628417969	2288.398193359375	126.7078170776367	-180.0549468994141	2104.38525390625	287.0777893066406	-211.1449432373047	2101.891357421875	255.6172485351562	-241.8145599365234	2087.8984375	266.4947204589844	-186.1120147705078	1833.10205078125	156.9764862060547	-313.88623046875
272	1.355	2327.7431640625	1458.428588867188	-450.4054260253906	2304.56640625	1452.73779296875	-139.0631713867188	2266.331298828125	992.3684692382812	-422.4058837890625	2274.10400390625	999.5352783203124	-121.5067672729492	2318.06884765625	942.089599609375	-407.6005249023438	1857.397094726562	191.6322784423828	-293.5254211425781	2332.815185546875	952.8461303710938	-150.0619049072266	2175.09228515625	881.92919921875	-413.5465087890625	2207.0908203125	894.0525512695312	-101.1044998168945	2176.73095703125	1036.538452148438	-277.663818359375	2248.048583984375	629.3995361328125	-416.012451171875	1982.68896484375	335.0963439941406	-385.6205749511719	2165.61328125	648.2145385742188	-421.3289489746094	2223.271240234375	531.59326171875	-393.6055603027344	2266.060791015625	141.3618774414062	-119.3515167236328	2039.763916015625	415.5718078613281	-404.8594970703125	2140.912109375	553.5009765625	-395.4795227050781	2450.593017578125	695.6892700195312	-109.8718566894531	2035.746337890625	51.27292251586914	-302.5205993652344	2380.635986328125	662.0035400390625	-99.492431640625	2490.835693359375	604.2747802734375	-129.88671875	2417.046142578125	573.6344604492188	-118.4308929443359	2160.614501953125	496.1452026367188	-394.5830078125	2448.927978515625	551.8052978515625	-119.5801849365234	2103.745361328125	370.8968811035156	-397.9645690917969	2046.312133789062	288.8471374511719	-382.9366760253906	2413.6884765625	438.0496215820312	-121.2053680419922	1983.453491210938	54.45395660400391	-366.826904296875	2354.931396484375	492.7831726074219	-113.2250137329102	1854.806396484375	166.9750213623047	-263.2508239746094	2343.553466796875	363.7637329101562	-130.520751953125	2287.709228515625	420.0474548339844	-123.8121337890625	1915.421264648438	165.3720550537109	-350.7339477539062	2190.22802734375	254.1564178466797	-153.6681060791016	2326.125	125.051872253418	-179.0141448974609	2133.6533203125	274.9997863769531	-210.9105987548828	2132.762939453125	243.2635955810547	-242.8767852783203	2117.293701171875	253.2808074951172	-187.5302734375	1841.964477539062	166.7159881591797	-316.2448120117188
273	1.36	2346.072265625	1463.674560546875	-448.9053344726562	2320.26513671875	1456.723876953125	-138.8790435791016	2282.586669921875	996.8368530273438	-421.7388916015625	2291.558837890625	1004.481994628906	-121.3192443847656	2336.25244140625	945.894775390625	-406.9917602539062	1870.610717773438	201.1038970947266	-296.0247802734375	2350.11669921875	957.6714477539062	-149.6214599609375	2192.745361328125	886.8842163085938	-413.6585693359375	2225.23046875	898.9735107421875	-100.5947418212891	2194.422119140625	1040.969970703125	-277.3763427734375	2260.7041015625	633.306396484375	-416.3849792480469	1991.95458984375	341.7586059570312	-388.15771484375	2179.16015625	653.8973388671875	-422.3352966308594	2233.7998046875	536.30810546875	-392.7789611816406	2301.7900390625	136.5393371582031	-118.8437271118164	2048.305419921875	421.9647521972656	-406.5703125	2151.628662109375	559.9736328125	-396.1223754882812	2468.686279296875	700.1385498046875	-109.9756469726562	2038.531860351562	50.4819450378418	-303.0801086425781	2398.662353515625	667.3975830078125	-99.00645446777344	2508.48828125	608.569580078125	-130.0325164794922	2434.63818359375	578.3163452148438	-118.2480850219727	2170.07958984375	502.5890808105469	-395.9756774902344	2466.353515625	555.3883666992188	-120.1149215698242	2112.28466796875	378.2342834472656	-400.0510559082031	2055.49365234375	295.3530578613281	-385.5674743652344	2434.73291015625	439.6159057617188	-120.9598922729492	1986.639892578125	55.56124496459961	-367.7321166992188	2373.3330078125	491.5140991210938	-112.6487121582031	1865.119018554688	176.5572662353516	-265.7369079589844	2368.54931640625	362.4009399414062	-130.5012054443359	2309.83154296875	415.8245849609375	-123.8554458618164	1924.712524414062	170.9338073730469	-353.5956115722656	2220.307861328125	245.0033111572266	-154.1033172607422	2363.187744140625	123.8483581542969	-177.7433776855469	2163.08740234375	262.77880859375	-211.0641021728516	2164.463623046875	231.0293426513672	-243.7533569335938	2147.823486328125	240.1939239501953	-188.9369354248047	1852.014282226562	176.2392883300781	-318.43896484375
274	1.365	2364.370361328125	1468.13623046875	-447.7164306640625	2335.207763671875	1460.8447265625	-138.3605346679688	2302.56201171875	1000.687622070312	-421.1324462890625	2308.8154296875	1008.900756835938	-121.4899444580078	2354.067626953125	949.0682983398438	-406.2477416992188	1882.448608398438	210.3082733154297	-299.1087036132812	2368.05078125	962.1176147460938	-149.3285675048828	2210.164306640625	891.9098510742188	-413.608642578125	2243.704345703125	904.3851318359376	-99.20771026611328	2212.591796875	1044.869873046875	-277.5707092285156	2273.509521484375	637.4555053710938	-416.6609497070312	2001.411010742188	347.9880676269531	-390.0872497558594	2192.645263671875	659.6138916015625	-423.3894653320312	2244.362060546875	540.6141967773438	-392.9565734863281	2337.40966796875	132.2393646240234	-117.9229431152344	2057.51611328125	428.7455749511719	-407.8671569824219	2163.115478515625	566.1629028320312	-396.9613037109375	2486.62451171875	704.30859375	-110.4381332397461	2041.949462890625	49.64952087402344	-304.1991882324219	2416.3349609375	671.7152709960938	-99.4848403930664	2525.509765625	612.2138671875	-130.2878875732422	2451.542236328125	582.6480102539062	-118.0452728271484	2179.893310546875	508.3818359375	-396.4747009277344	2482.851806640625	558.9404296875	-120.0677261352539	2121.293701171875	384.8748474121094	-401.5568237304688	2065.2705078125	302.0101623535156	-387.7981567382812	2455.36376953125	440.9186706542969	-120.3289794921875	1990.544921875	56.6531982421875	-369.1264343261719	2391.66845703125	489.6140747070312	-112.4844970703125	1875.778564453125	186.6226043701172	-268.1829528808594	2392.83251953125	360.2289123535156	-130.2919921875	2331.942138671875	411.4306335449219	-124.098030090332	1934.297119140625	176.0501251220703	-355.9278869628906	2250.74755859375	235.7744445800781	-154.7451171875	2400.101318359375	123.0121765136719	-176.2598266601562	2193.7509765625	250.2679748535156	-212.9960479736328	2196.891845703125	219.1970672607422	-244.8858947753906	2178.730712890625	227.1585083007812	-190.5121612548828	1862.867797851562	186.4238891601562	-320.9065246582031
